<svg width="400" height="400" viewBox="0 0 400 400" fill="none" xmlns="http://www.w3.org/2000/svg">
<g clip-path="url(#clip0_46_5)">
<rect width="400" height="400" fill="#122C38"/>
<path d="M56.5217 170.5L80.6617 230H68.6767L64.8517 220.565H57.2867C46.3217 220.565 36.9717 221.67 33.6567 230H21.6717L45.8117 170.5H56.5217ZM57.2867 210.365H60.6867L51.1667 186.735L39.6917 215.125C44.7067 211.47 50.5717 210.365 57.2867 210.365ZM105.168 220.735C110.523 220.735 114.093 218.61 114.093 213.425H125.228C125.228 224.815 117.068 231.275 105.593 231.275C91.4832 231.275 83.4082 220.905 83.4082 206.965C83.4082 193.025 91.4832 182.74 105.593 182.74C117.068 182.74 125.228 189.2 125.228 200.59H114.093C114.093 195.405 110.523 193.28 105.168 193.28C98.5382 193.28 94.5432 197.785 94.5432 206.965C94.5432 216.145 98.5382 220.735 105.168 220.735ZM153.645 220.735C159 220.735 162.57 218.61 162.57 213.425H173.705C173.705 224.815 165.545 231.275 154.07 231.275C139.96 231.275 131.885 220.905 131.885 206.965C131.885 193.025 139.96 182.74 154.07 182.74C165.545 182.74 173.705 189.2 173.705 200.59H162.57C162.57 195.405 159 193.28 153.645 193.28C147.015 193.28 143.02 197.785 143.02 206.965C143.02 216.145 147.015 220.735 153.645 220.735ZM210.961 214.02H222.096C222.096 225.41 214.956 231.275 202.461 231.275C188.691 231.275 180.276 220.99 180.276 207.05C180.276 190.56 191.581 183.505 201.951 182.74C214.276 181.89 221.246 188.095 221.246 196.595C221.246 201.61 219.886 205.605 213.086 208.58L193.876 216.74C195.831 219.715 198.721 221.33 202.036 221.33C207.051 221.33 210.961 219.205 210.961 214.02ZM191.411 207.05C191.411 207.73 191.411 208.325 191.496 209.005L207.306 202.205C209.091 201.44 210.536 200.59 210.536 198.38C210.536 194.725 206.966 192.345 202.886 192.345C197.531 192.345 191.411 196.425 191.411 207.05ZM257.483 182.74C266.748 182.74 275.163 189.115 275.163 201.78V230H264.538V203.65C264.538 196.255 259.353 192.26 253.743 192.26C247.538 192.26 241.418 197.445 241.418 206.455V230H230.708V184.015H241.418V193.535C244.903 186.82 250.938 182.74 257.483 182.74ZM306.844 182.74C320.784 182.74 331.154 193.62 331.154 207.05C331.154 220.395 320.784 231.275 306.844 231.275C292.989 231.275 282.619 220.395 282.619 207.05C282.619 193.62 292.989 182.74 306.844 182.74ZM306.844 221.245C315.514 221.245 320.104 214.36 320.104 207.05C320.104 199.655 315.514 192.77 306.844 192.77C298.259 192.77 293.669 199.655 293.669 207.05C293.669 214.36 298.259 221.245 306.844 221.245ZM361.798 206.965L377.778 230H364.858L354.573 215.21L345.053 230H332.133L348.113 205.86L332.983 184.1H345.903L355.338 197.615L364.008 184.1H376.843L361.798 206.965Z" fill="#DDF7CC"/>
<path d="M56.5217 170.5L57.4483 170.124L57.1951 169.5H56.5217V170.5ZM80.6617 230V231H82.1465L81.5883 229.624L80.6617 230ZM68.6767 230L67.7499 230.376L68.003 231H68.6767V230ZM64.8517 220.565L65.7784 220.189L65.5253 219.565H64.8517V220.565ZM33.6567 230V231H34.335L34.5858 230.37L33.6567 230ZM21.6717 230L20.745 229.624L20.1868 231H21.6717V230ZM45.8117 170.5V169.5H45.1382L44.885 170.124L45.8117 170.5ZM60.6867 210.365V211.365H62.1676L61.6142 209.991L60.6867 210.365ZM51.1667 186.735L52.0942 186.361L51.1682 184.063L50.2395 186.36L51.1667 186.735ZM39.6917 215.125L38.7645 214.75L37.4536 217.994L40.2806 215.933L39.6917 215.125ZM56.5217 170.5L55.595 170.876L79.735 230.376L80.6617 230L81.5883 229.624L57.4483 170.124L56.5217 170.5ZM80.6617 230V229H68.6767V230V231H80.6617V230ZM68.6767 230L69.6034 229.624L65.7784 220.189L64.8517 220.565L63.9249 220.941L67.7499 230.376L68.6767 230ZM64.8517 220.565V219.565H57.2867V220.565V221.565H64.8517V220.565ZM57.2867 220.565V219.565C51.7979 219.565 46.5819 219.837 42.2985 221.206C37.9662 222.591 34.5218 225.122 32.7275 229.63L33.6567 230L34.5858 230.37C36.1065 226.548 38.9946 224.362 42.9073 223.111C46.8689 221.845 51.8104 221.565 57.2867 221.565V220.565ZM33.6567 230V229H21.6717V230V231H33.6567V230ZM21.6717 230L22.5983 230.376L46.7383 170.876L45.8117 170.5L44.885 170.124L20.745 229.624L21.6717 230ZM45.8117 170.5V171.5H56.5217V170.5V169.5H45.8117V170.5ZM57.2867 210.365V211.365H60.6867V210.365V209.365H57.2867V210.365ZM60.6867 210.365L61.6142 209.991L52.0942 186.361L51.1667 186.735L50.2391 187.109L59.7591 210.739L60.6867 210.365ZM51.1667 186.735L50.2395 186.36L38.7645 214.75L39.6917 215.125L40.6188 215.5L52.0938 187.11L51.1667 186.735ZM39.6917 215.125L40.2806 215.933C45.0539 212.454 50.6749 211.365 57.2867 211.365V210.365V209.365C50.4685 209.365 44.3594 210.486 39.1027 214.317L39.6917 215.125ZM114.093 213.425V212.425H113.093V213.425H114.093ZM125.228 213.425H126.228V212.425H125.228V213.425ZM125.228 200.59V201.59H126.228V200.59H125.228ZM114.093 200.59H113.093V201.59H114.093V200.59ZM105.168 220.735V221.735C107.952 221.735 110.435 221.187 112.241 219.822C114.098 218.421 115.093 216.271 115.093 213.425H114.093H113.093C113.093 215.764 112.304 217.269 111.036 218.226C109.719 219.221 107.739 219.735 105.168 219.735V220.735ZM114.093 213.425V214.425H125.228V213.425V212.425H114.093V213.425ZM125.228 213.425H124.228C124.228 218.864 122.289 223.04 119.056 225.869C115.805 228.711 111.15 230.275 105.593 230.275V231.275V232.275C111.511 232.275 116.674 230.609 120.372 227.374C124.087 224.125 126.228 219.376 126.228 213.425H125.228ZM105.593 231.275V230.275C98.8015 230.275 93.5394 227.789 89.963 223.69C86.3723 219.575 84.4082 213.748 84.4082 206.965H83.4082H82.4082C82.4082 214.122 84.4817 220.45 88.456 225.005C92.4446 229.576 98.2749 232.275 105.593 232.275V231.275ZM83.4082 206.965H84.4082C84.4082 200.182 86.3721 194.378 89.9614 190.284C93.5366 186.207 98.7988 183.74 105.593 183.74V182.74V181.74C98.2776 181.74 92.4473 184.416 88.4576 188.966C84.4818 193.5 82.4082 199.808 82.4082 206.965H83.4082ZM105.593 182.74V183.74C111.15 183.74 115.805 185.304 119.056 188.146C122.289 190.975 124.228 195.151 124.228 200.59H125.228H126.228C126.228 194.639 124.087 189.89 120.372 186.641C116.674 183.406 111.511 181.74 105.593 181.74V182.74ZM125.228 200.59V199.59H114.093V200.59V201.59H125.228V200.59ZM114.093 200.59H115.093C115.093 197.744 114.098 195.594 112.241 194.193C110.435 192.828 107.952 192.28 105.168 192.28V193.28V194.28C107.739 194.28 109.719 194.794 111.036 195.789C112.304 196.746 113.093 198.251 113.093 200.59H114.093ZM105.168 193.28V192.28C101.609 192.28 98.6414 193.501 96.59 196.054C94.5666 198.571 93.5432 202.25 93.5432 206.965H94.5432H95.5432C95.5432 202.5 96.5173 199.336 98.1489 197.306C99.7525 195.311 102.097 194.28 105.168 194.28V193.28ZM94.5432 206.965H93.5432C93.5432 211.681 94.5667 215.378 96.5872 217.915C98.6359 220.488 101.603 221.735 105.168 221.735V220.735V219.735C102.103 219.735 99.758 218.687 98.1518 216.67C96.5173 214.617 95.5432 211.429 95.5432 206.965H94.5432ZM162.57 213.425V212.425H161.57V213.425H162.57ZM173.705 213.425H174.705V212.425H173.705V213.425ZM173.705 200.59V201.59H174.705V200.59H173.705ZM162.57 200.59H161.57V201.59H162.57V200.59ZM153.645 220.735V221.735C156.429 221.735 158.911 221.187 160.718 219.822C162.574 218.421 163.57 216.271 163.57 213.425H162.57H161.57C161.57 215.764 160.78 217.269 159.513 218.226C158.196 219.221 156.216 219.735 153.645 219.735V220.735ZM162.57 213.425V214.425H173.705V213.425V212.425H162.57V213.425ZM173.705 213.425H172.705C172.705 218.864 170.766 223.04 167.532 225.869C164.282 228.711 159.627 230.275 154.07 230.275V231.275V232.275C159.988 232.275 165.15 230.609 168.849 227.374C172.564 224.125 174.705 219.376 174.705 213.425H173.705ZM154.07 231.275V230.275C147.278 230.275 142.016 227.789 138.44 223.69C134.849 219.575 132.885 213.748 132.885 206.965H131.885H130.885C130.885 214.122 132.958 220.45 136.933 225.005C140.921 229.576 146.751 232.275 154.07 232.275V231.275ZM131.885 206.965H132.885C132.885 200.182 134.849 194.378 138.438 190.284C142.013 186.207 147.275 183.74 154.07 183.74V182.74V181.74C146.754 181.74 140.924 184.416 136.934 188.966C132.958 193.5 130.885 199.808 130.885 206.965H131.885ZM154.07 182.74V183.74C159.627 183.74 164.282 185.304 167.532 188.146C170.766 190.975 172.705 195.151 172.705 200.59H173.705H174.705C174.705 194.639 172.564 189.89 168.849 186.641C165.15 183.406 159.988 181.74 154.07 181.74V182.74ZM173.705 200.59V199.59H162.57V200.59V201.59H173.705V200.59ZM162.57 200.59H163.57C163.57 197.744 162.574 195.594 160.718 194.193C158.911 192.828 156.429 192.28 153.645 192.28V193.28V194.28C156.216 194.28 158.196 194.794 159.513 195.789C160.78 196.746 161.57 198.251 161.57 200.59H162.57ZM153.645 193.28V192.28C150.086 192.28 147.118 193.501 145.067 196.054C143.043 198.571 142.02 202.25 142.02 206.965H143.02H144.02C144.02 202.5 144.994 199.336 146.625 197.306C148.229 195.311 150.574 194.28 153.645 194.28V193.28ZM143.02 206.965H142.02C142.02 211.681 143.043 215.378 145.064 217.915C147.112 220.488 150.08 221.735 153.645 221.735V220.735V219.735C150.58 219.735 148.235 218.687 146.628 216.67C144.994 214.617 144.02 211.429 144.02 206.965H143.02ZM210.961 214.02V213.02H209.961V214.02H210.961ZM222.096 214.02H223.096V213.02H222.096V214.02ZM201.951 182.74L201.883 181.742L201.878 181.743L201.951 182.74ZM213.086 208.58L213.477 209.5L213.487 209.496L213.086 208.58ZM193.876 216.74L193.485 215.82L192.383 216.288L193.041 217.289L193.876 216.74ZM191.496 209.005L190.504 209.129L190.669 210.449L191.891 209.924L191.496 209.005ZM207.306 202.205L206.912 201.286L206.911 201.286L207.306 202.205ZM210.961 214.02V215.02H222.096V214.02V213.02H210.961V214.02ZM222.096 214.02H221.096C221.096 219.497 219.388 223.505 216.311 226.162C213.209 228.84 208.569 230.275 202.461 230.275V231.275V232.275C208.849 232.275 214.026 230.777 217.618 227.676C221.235 224.553 223.096 219.933 223.096 214.02H222.096ZM202.461 231.275V230.275C195.842 230.275 190.576 227.812 186.953 223.727C183.32 219.628 181.276 213.823 181.276 207.05H180.276H179.276C179.276 214.217 181.441 220.524 185.457 225.053C189.485 229.596 195.31 232.275 202.461 232.275V231.275ZM180.276 207.05H181.276C181.276 199.053 184.008 193.437 187.914 189.723C191.84 185.989 197.027 184.106 202.025 183.737L201.951 182.74L201.878 181.743C196.506 182.139 190.855 184.166 186.536 188.273C182.197 192.4 179.276 198.557 179.276 207.05H180.276ZM201.951 182.74L202.02 183.738C208.012 183.324 212.574 184.634 215.614 186.956C218.635 189.264 220.246 192.639 220.246 196.595H221.246H222.246C222.246 192.051 220.373 188.074 216.828 185.367C213.301 182.673 208.216 181.306 201.883 181.742L201.951 182.74ZM221.246 196.595H220.246C220.246 199.021 219.915 201.065 218.857 202.841C217.805 204.608 215.957 206.232 212.686 207.664L213.086 208.58L213.487 209.496C217.015 207.953 219.248 206.092 220.575 203.864C221.898 201.645 222.246 199.184 222.246 196.595H221.246ZM213.086 208.58L212.695 207.66L193.485 215.82L193.876 216.74L194.267 217.66L213.477 209.5L213.086 208.58ZM193.876 216.74L193.041 217.289C195.166 220.524 198.359 222.33 202.036 222.33V221.33V220.33C199.083 220.33 196.496 218.906 194.712 216.191L193.876 216.74ZM202.036 221.33V222.33C204.663 222.33 207.133 221.777 208.972 220.425C210.858 219.039 211.961 216.898 211.961 214.02H210.961H209.961C209.961 216.327 209.11 217.841 207.787 218.814C206.417 219.821 204.425 220.33 202.036 220.33V221.33ZM191.411 207.05H190.411C190.411 207.724 190.41 208.379 190.504 209.129L191.496 209.005L192.489 208.881C192.412 208.271 192.411 207.736 192.411 207.05H191.411ZM191.496 209.005L191.891 209.924L207.701 203.124L207.306 202.205L206.911 201.286L191.101 208.086L191.496 209.005ZM207.306 202.205L207.7 203.124C208.599 202.739 209.566 202.273 210.298 201.541C211.077 200.762 211.536 199.74 211.536 198.38H210.536H209.536C209.536 199.23 209.273 199.738 208.884 200.127C208.447 200.564 207.798 200.906 206.912 201.286L207.306 202.205ZM210.536 198.38H211.536C211.536 196.192 210.456 194.403 208.841 193.192C207.241 191.992 205.11 191.345 202.886 191.345V192.345V193.345C204.743 193.345 206.436 193.888 207.641 194.792C208.831 195.684 209.536 196.913 209.536 198.38H210.536ZM202.886 192.345V191.345C199.958 191.345 196.816 192.462 194.411 195.03C192.001 197.602 190.411 201.543 190.411 207.05H191.411H192.411C192.411 201.932 193.881 198.52 195.871 196.397C197.864 194.268 200.46 193.345 202.886 193.345V192.345ZM275.163 230V231H276.163V230H275.163ZM264.538 230H263.538V231H264.538V230ZM241.418 230V231H242.418V230H241.418ZM230.708 230H229.708V231H230.708V230ZM230.708 184.015V183.015H229.708V184.015H230.708ZM241.418 184.015H242.418V183.015H241.418V184.015ZM241.418 193.535H240.418L242.305 193.996L241.418 193.535ZM257.483 182.74V183.74C261.888 183.74 266.047 185.254 269.1 188.227C272.143 191.191 274.163 195.68 274.163 201.78H275.163H276.163C276.163 195.215 273.976 190.184 270.495 186.794C267.024 183.413 262.343 181.74 257.483 181.74V182.74ZM275.163 201.78H274.163V230H275.163H276.163V201.78H275.163ZM275.163 230V229H264.538V230V231H275.163V230ZM264.538 230H265.538V203.65H264.538H263.538V230H264.538ZM264.538 203.65H265.538C265.538 199.706 264.148 196.59 261.938 194.461C259.737 192.343 256.783 191.26 253.743 191.26V192.26V193.26C256.313 193.26 258.756 194.174 260.551 195.902C262.335 197.62 263.538 200.199 263.538 203.65H264.538ZM253.743 192.26V191.26C246.94 191.26 240.418 196.94 240.418 206.455H241.418H242.418C242.418 197.95 248.136 193.26 253.743 193.26V192.26ZM241.418 206.455H240.418V230H241.418H242.418V206.455H241.418ZM241.418 230V229H230.708V230V231H241.418V230ZM230.708 230H231.708V184.015H230.708H229.708V230H230.708ZM230.708 184.015V185.015H241.418V184.015V183.015H230.708V184.015ZM241.418 184.015H240.418V193.535H241.418H242.418V184.015H241.418ZM241.418 193.535L242.305 193.996C245.653 187.545 251.381 183.74 257.483 183.74V182.74V181.74C250.495 181.74 244.153 186.095 240.53 193.074L241.418 193.535ZM306.844 182.74V183.74C320.218 183.74 330.154 194.158 330.154 207.05H331.154H332.154C332.154 193.082 321.35 181.74 306.844 181.74V182.74ZM331.154 207.05H330.154C330.154 219.854 320.22 230.275 306.844 230.275V231.275V232.275C321.348 232.275 332.154 220.936 332.154 207.05H331.154ZM306.844 231.275V230.275C293.555 230.275 283.619 219.857 283.619 207.05H282.619H281.619C281.619 220.933 292.423 232.275 306.844 232.275V231.275ZM282.619 207.05H283.619C283.619 194.156 293.557 183.74 306.844 183.74V182.74V181.74C292.421 181.74 281.619 193.084 281.619 207.05H282.619ZM306.844 221.245V222.245C311.469 222.245 315.065 220.397 317.488 217.535C319.895 214.693 321.104 210.905 321.104 207.05H320.104H319.104C319.104 210.505 318.018 213.815 315.962 216.243C313.923 218.65 310.889 220.245 306.844 220.245V221.245ZM320.104 207.05H321.104C321.104 203.155 319.896 199.346 317.49 196.492C315.066 193.618 311.47 191.77 306.844 191.77V192.77V193.77C310.888 193.77 313.922 195.364 315.961 197.782C318.017 200.219 319.104 203.55 319.104 207.05H320.104ZM306.844 192.77V191.77C302.258 191.77 298.683 193.621 296.271 196.494C293.877 199.347 292.669 203.156 292.669 207.05H293.669H294.669C294.669 203.549 295.756 200.218 297.803 197.78C299.833 195.362 302.845 193.77 306.844 193.77V192.77ZM293.669 207.05H292.669C292.669 210.904 293.878 214.692 296.272 217.533C298.684 220.395 302.258 222.245 306.844 222.245V221.245V220.245C302.845 220.245 299.832 218.653 297.802 216.244C295.755 213.816 294.669 210.506 294.669 207.05H293.669ZM361.798 206.965L360.962 206.415L360.591 206.98L360.976 207.535L361.798 206.965ZM377.778 230V231H379.689L378.599 229.43L377.778 230ZM364.858 230L364.037 230.571L364.335 231H364.858V230ZM354.573 215.21L355.394 214.639L354.541 213.412L353.732 214.669L354.573 215.21ZM345.053 230V231H345.598L345.894 230.541L345.053 230ZM332.133 230L331.299 229.448L330.272 231H332.133V230ZM348.113 205.86L348.947 206.412L349.321 205.846L348.934 205.289L348.113 205.86ZM332.983 184.1V183.1H331.07L332.162 184.671L332.983 184.1ZM345.903 184.1L346.723 183.528L346.424 183.1H345.903V184.1ZM355.338 197.615L354.518 198.187L355.373 199.412L356.18 198.155L355.338 197.615ZM364.008 184.1V183.1H363.461L363.166 183.56L364.008 184.1ZM376.843 184.1L377.678 184.65L378.698 183.1H376.843V184.1ZM361.798 206.965L360.976 207.535L376.956 230.57L377.778 230L378.599 229.43L362.619 206.395L361.798 206.965ZM377.778 230V229H364.858V230V231H377.778V230ZM364.858 230L365.679 229.429L355.394 214.639L354.573 215.21L353.752 215.781L364.037 230.571L364.858 230ZM354.573 215.21L353.732 214.669L344.212 229.459L345.053 230L345.894 230.541L355.414 215.751L354.573 215.21ZM345.053 230V229H332.133V230V231H345.053V230ZM332.133 230L332.967 230.552L348.947 206.412L348.113 205.86L347.279 205.308L331.299 229.448L332.133 230ZM348.113 205.86L348.934 205.289L333.804 183.529L332.983 184.1L332.162 184.671L347.292 206.431L348.113 205.86ZM332.983 184.1V185.1H345.903V184.1V183.1H332.983V184.1ZM345.903 184.1L345.083 184.672L354.518 198.187L355.338 197.615L356.158 197.043L346.723 183.528L345.903 184.1ZM355.338 197.615L356.18 198.155L364.85 184.64L364.008 184.1L363.166 183.56L354.496 197.075L355.338 197.615ZM364.008 184.1V185.1H376.843V184.1V183.1H364.008V184.1ZM376.843 184.1L376.007 183.55L360.962 206.415L361.798 206.965L362.633 207.515L377.678 184.65L376.843 184.1Z" fill="#DDF7CC"/>
</g>
<defs>
<clipPath id="clip0_46_5">
<rect width="400" height="400" fill="white"/>
</clipPath>
</defs>
</svg>
